<svg xmlns="http://www.w3.org/2000/svg" style="position:absolute; width: 0; height: 0;"><symbol viewBox="0 0 1792 1792" id="iconangle-double-down"><path d="M1395 864q0 13-10 23l-466 466q-10 10-23 10t-23-10L407 887q-10-10-10-23t10-23l50-50q10-10 23-10t23 10l393 393 393-393q10-10 23-10t23 10l50 50q10 10 10 23zm0-384q0 13-10 23L919 969q-10 10-23 10t-23-10L407 503q-10-10-10-23t10-23l50-50q10-10 23-10t23 10l393 393 393-393q10-10 23-10t23 10l50 50q10 10 10 23z"></path></symbol><symbol viewBox="0 0 1792 1792" id="iconangle-double-left"><path d="M1011 1376q0 13-10 23l-50 50q-10 10-23 10t-23-10L439 983q-10-10-10-23t10-23l466-466q10-10 23-10t23 10l50 50q10 10 10 23t-10 23L608 960l393 393q10 10 10 23zm384 0q0 13-10 23l-50 50q-10 10-23 10t-23-10L823 983q-10-10-10-23t10-23l466-466q10-10 23-10t23 10l50 50q10 10 10 23t-10 23L992 960l393 393q10 10 10 23z"></path></symbol><symbol viewBox="0 0 1792 1792" id="iconangle-double-right"><path d="M979 960q0 13-10 23l-466 466q-10 10-23 10t-23-10l-50-50q-10-10-10-23t10-23l393-393-393-393q-10-10-10-23t10-23l50-50q10-10 23-10t23 10l466 466q10 10 10 23zm384 0q0 13-10 23l-466 466q-10 10-23 10t-23-10l-50-50q-10-10-10-23t10-23l393-393-393-393q-10-10-10-23t10-23l50-50q10-10 23-10t23 10l466 466q10 10 10 23z"></path></symbol><symbol viewBox="0 0 1792 1792" id="iconangle-double-up"><path d="M1395 1312q0 13-10 23l-50 50q-10 10-23 10t-23-10L896 992l-393 393q-10 10-23 10t-23-10l-50-50q-10-10-10-23t10-23l466-466q10-10 23-10t23 10l466 466q10 10 10 23zm0-384q0 13-10 23l-50 50q-10 10-23 10t-23-10L896 608l-393 393q-10 10-23 10t-23-10l-50-50q-10-10-10-23t10-23l466-466q10-10 23-10t23 10l466 466q10 10 10 23z"></path></symbol><symbol viewBox="0 0 1792 1792" id="iconangle-left"><path d="M1203 544q0 13-10 23L800 960l393 393q10 10 10 23t-10 23l-50 50q-10 10-23 10t-23-10L631 983q-10-10-10-23t10-23l466-466q10-10 23-10t23 10l50 50q10 10 10 23z"></path></symbol><symbol viewBox="0 0 1792 1792" id="iconangle-right"><path d="M1171 960q0 13-10 23l-466 466q-10 10-23 10t-23-10l-50-50q-10-10-10-23t10-23l393-393-393-393q-10-10-10-23t10-23l50-50q10-10 23-10t23 10l466 466q10 10 10 23z"></path></symbol></svg>